<svg width="16" height="16" viewBox="0 0 16 16" fill="none" xmlns="http://www.w3.org/2000/svg">
<g id="Add">
<path id="Vector" d="M8.62499 1.33333C8.62499 0.98815 8.34517 0.708328 7.99999 0.708328C7.65482 0.708328 7.37499 0.98815 7.37499 1.33333L7.37499 7.37499H1.33333C0.98815 7.37499 0.708328 7.65482 0.708328 7.99999C0.708328 8.34517 0.98815 8.62499 1.33333 8.62499H7.37499V14.6667C7.37499 15.0118 7.65482 15.2917 7.99999 15.2917C8.34517 15.2917 8.62499 15.0118 8.62499 14.6667V8.62499H14.6667C15.0118 8.62499 15.2917 8.34517 15.2917 7.99999C15.2917 7.65482 15.0118 7.37499 14.6667 7.37499H8.62499L8.62499 1.33333Z" fill="#F07721"/>
</g>
</svg>
