<svg width="108" height="86" viewBox="0 0 108 86" fill="none" xmlns="http://www.w3.org/2000/svg">
    <path fill-rule="evenodd" clip-rule="evenodd" d="M40 39.5C40 61.3152 36.866 79 33 79C29.134 79 26 61.3152 26 39.5C26 17.6848 29.134 0 33 0C36.866 0 40 17.6848 40 39.5ZM19 68C22.866 68 26 53.2254 26 35C26 16.7746 22.866 2 19 2C15.134 2 12 16.7746 12 35C12 53.2254 15.134 68 19 68ZM6 51C9.31371 51 12 42.4934 12 32C12 21.5066 9.31371 13 6 13C2.68629 13 0 21.5066 0 32C0 42.4934 2.68629 51 6 51ZM47 86C50.866 86 54 68.3152 54 46.5C54 68.3152 57.134 86 61 86C64.866 86 68 68.3152 68 46.5C68 24.6848 64.866 7 61 7C57.134 7 54 24.6848 54 46.5C54 24.6848 50.866 7 47 7C43.134 7 40 24.6848 40 46.5C40 68.3152 43.134 86 47 86ZM75 78C78.866 78 82 60.5391 82 39C82 17.4609 78.866 0 75 0C71.134 0 68 17.4609 68 39C68 60.5391 71.134 78 75 78ZM96 36C96 54.2254 92.866 69 89 69C85.134 69 82 54.2254 82 36C82 17.7746 85.134 3 89 3C92.866 3 96 17.7746 96 36ZM102 50C105.314 50 108 41.4934 108 31C108 20.5066 105.314 12 102 12C98.6863 12 96 20.5066 96 31C96 41.4934 98.6863 50 102 50Z" fill="#F07721"/>
</svg>
