<svg width="20" height="16" viewBox="0 0 20 16" fill="none" xmlns="http://www.w3.org/2000/svg">
<g id="Card 2">
<path id="Vector" d="M12.5 12.1667H9.16667M6.66667 12.1667H5.00001M1.67588 6.33334C1.66667 6.81419 1.66667 7.36372 1.66667 8C1.66667 10.3336 1.66667 11.5003 2.12081 12.3916C2.52028 13.1756 3.1577 13.8131 3.94171 14.2125C4.83301 14.6667 5.99979 14.6667 8.33334 14.6667H11.6667C14.0002 14.6667 15.167 14.6667 16.0583 14.2125C16.8423 13.8131 17.4797 13.1756 17.8792 12.3916C18.3333 11.5003 18.3333 10.3336 18.3333 8C18.3333 7.36372 18.3333 6.81419 18.3241 6.33334M1.67588 6.33334C1.70044 5.05065 1.7905 4.25665 2.12081 3.60838C2.52028 2.82437 3.1577 2.18695 3.94171 1.78748C4.83301 1.33334 5.99979 1.33334 8.33334 1.33334H11.6667C14.0002 1.33334 15.167 1.33334 16.0583 1.78748C16.8423 2.18695 17.4797 2.82437 17.8792 3.60838C18.2095 4.25665 18.2996 5.05065 18.3241 6.33334M1.67588 6.33334H18.3241" stroke="#FAFAFA" stroke-width="1.5" stroke-linecap="round"/>
</g>
</svg>
