<svg width="28" height="28" viewBox="0 0 28 28" fill="none" xmlns="http://www.w3.org/2000/svg">
    <path fill-rule="evenodd" clip-rule="evenodd" d="M9.50289 3.81586C9.14751 3.79161 8.71463 3.79162 8.1961 3.79163H8.13717C7.61864 3.79162 7.18575 3.79161 6.83037 3.81586C6.46042 3.8411 6.11097 3.89552 5.77218 4.03585C4.98605 4.36147 4.36147 4.98605 4.03585 5.77218C3.89552 6.11097 3.8411 6.46042 3.81586 6.83037C3.79161 7.18575 3.79162 7.61862 3.79163 8.13715V8.19609C3.79162 8.71462 3.79161 9.14751 3.81586 9.50289C3.8411 9.87284 3.89552 10.2223 4.03585 10.5611C4.36147 11.3472 4.98605 11.9718 5.77218 12.2974C6.11097 12.4377 6.46042 12.4922 6.83037 12.5174C7.18575 12.5416 7.61862 12.5416 8.13716 12.5416H8.19609C8.71463 12.5416 9.14751 12.5416 9.50289 12.5174C9.87284 12.4922 10.2223 12.4377 10.5611 12.2974C11.3472 11.9718 11.9718 11.3472 12.2974 10.5611C12.4377 10.2223 12.4922 9.87284 12.5174 9.50289C12.5416 9.14751 12.5416 8.71463 12.5416 8.19609V8.13716C12.5416 7.61862 12.5416 7.18575 12.5174 6.83037C12.4922 6.46042 12.4377 6.11097 12.2974 5.77218C11.9718 4.98605 11.3472 4.36147 10.5611 4.03585C10.2223 3.89552 9.87284 3.8411 9.50289 3.81586ZM6.44188 5.65264C6.53189 5.61535 6.66864 5.58096 6.94949 5.5618C7.2382 5.5421 7.61106 5.54163 8.16663 5.54163C8.7222 5.54163 9.09505 5.5421 9.38376 5.5618C9.66461 5.58096 9.80136 5.61535 9.89137 5.65264C10.2487 5.80065 10.5326 6.08455 10.6806 6.44188C10.7179 6.53189 10.7523 6.66864 10.7715 6.94949C10.7912 7.2382 10.7916 7.61106 10.7916 8.16663C10.7916 8.7222 10.7912 9.09505 10.7715 9.38376C10.7523 9.66461 10.7179 9.80136 10.6806 9.89137C10.5326 10.2487 10.2487 10.5326 9.89137 10.6806C9.80136 10.7179 9.66461 10.7523 9.38376 10.7715C9.09505 10.7912 8.7222 10.7916 8.16663 10.7916C7.61106 10.7916 7.2382 10.7912 6.94949 10.7715C6.66864 10.7523 6.53189 10.7179 6.44188 10.6806C6.08455 10.5326 5.80065 10.2487 5.65264 9.89137C5.61535 9.80136 5.58096 9.66461 5.5618 9.38376C5.5421 9.09505 5.54163 8.7222 5.54163 8.16663C5.54163 7.61106 5.5421 7.2382 5.5618 6.94949C5.58096 6.66864 5.61535 6.53189 5.65264 6.44188C5.80065 6.08455 6.08455 5.80065 6.44188 5.65264Z" fill="white"/>
    <path fill-rule="evenodd" clip-rule="evenodd" d="M21.1696 3.81586C20.8142 3.79161 20.3813 3.79162 19.8628 3.79163H19.8038C19.2853 3.79162 18.8524 3.79161 18.497 3.81586C18.1271 3.8411 17.7776 3.89552 17.4389 4.03585C16.6527 4.36147 16.0281 4.98605 15.7025 5.77218C15.5622 6.11097 15.5078 6.46042 15.4825 6.83037C15.4583 7.18575 15.4583 7.61862 15.4583 8.13716V8.19609C15.4583 8.71463 15.4583 9.14751 15.4825 9.50289C15.5078 9.87284 15.5622 10.2223 15.7025 10.5611C16.0281 11.3472 16.6527 11.9718 17.4389 12.2974C17.7776 12.4377 18.1271 12.4922 18.497 12.5174C18.8524 12.5416 19.2853 12.5416 19.8038 12.5416H19.8628C20.3813 12.5416 20.8142 12.5416 21.1696 12.5174C21.5395 12.4922 21.8889 12.4377 22.2277 12.2974C23.0139 11.9718 23.6384 11.3472 23.9641 10.5611C24.1044 10.2223 24.1588 9.87284 24.1841 9.50289C24.2083 9.14751 24.2083 8.71463 24.2083 8.19609V8.13716C24.2083 7.61862 24.2083 7.18575 24.1841 6.83037C24.1588 6.46042 24.1044 6.11097 23.9641 5.77218C23.6384 4.98605 23.0139 4.36147 22.2277 4.03585C21.8889 3.89552 21.5395 3.8411 21.1696 3.81586ZM18.1085 5.65264C18.1986 5.61535 18.3353 5.58096 18.6162 5.5618C18.9049 5.5421 19.2777 5.54163 19.8333 5.54163C20.3889 5.54163 20.7617 5.5421 21.0504 5.5618C21.3313 5.58096 21.468 5.61535 21.558 5.65264C21.9154 5.80065 22.1993 6.08455 22.3473 6.44188C22.3846 6.53189 22.419 6.66864 22.4381 6.94949C22.4578 7.2382 22.4583 7.61106 22.4583 8.16663C22.4583 8.7222 22.4578 9.09505 22.4381 9.38376C22.419 9.66461 22.3846 9.80136 22.3473 9.89137C22.1993 10.2487 21.9154 10.5326 21.558 10.6806C21.468 10.7179 21.3313 10.7523 21.0504 10.7715C20.7617 10.7912 20.3889 10.7916 19.8333 10.7916C19.2777 10.7916 18.9049 10.7912 18.6162 10.7715C18.3353 10.7523 18.1986 10.7179 18.1085 10.6806C17.7512 10.5326 17.4673 10.2487 17.3193 9.89137C17.282 9.80136 17.2476 9.66461 17.2285 9.38376C17.2088 9.09505 17.2083 8.7222 17.2083 8.16663C17.2083 7.61106 17.2088 7.2382 17.2285 6.94949C17.2476 6.66864 17.282 6.53189 17.3193 6.44188C17.4673 6.08455 17.7512 5.80065 18.1085 5.65264Z" fill="white"/>
    <path fill-rule="evenodd" clip-rule="evenodd" d="M9.50289 15.4825C9.14751 15.4583 8.71463 15.4583 8.19609 15.4583H8.13716C7.61862 15.4583 7.18575 15.4583 6.83037 15.4825C6.46042 15.5078 6.11097 15.5622 5.77218 15.7025C4.98605 16.0281 4.36147 16.6527 4.03585 17.4389C3.89552 17.7776 3.8411 18.1271 3.81586 18.497C3.79161 18.8524 3.79162 19.2853 3.79163 19.8038V19.8628C3.79162 20.3813 3.79161 20.8142 3.81586 21.1696C3.8411 21.5395 3.89552 21.8889 4.03585 22.2277C4.36147 23.0139 4.98605 23.6384 5.77218 23.9641C6.11097 24.1044 6.46042 24.1588 6.83037 24.1841C7.18575 24.2083 7.61862 24.2083 8.13716 24.2083H8.19609C8.71463 24.2083 9.14751 24.2083 9.50289 24.1841C9.87284 24.1588 10.2223 24.1044 10.5611 23.9641C11.3472 23.6384 11.9718 23.0139 12.2974 22.2277C12.4377 21.8889 12.4922 21.5395 12.5174 21.1696C12.5416 20.8142 12.5416 20.3813 12.5416 19.8628V19.8038C12.5416 19.2853 12.5416 18.8524 12.5174 18.497C12.4922 18.1271 12.4377 17.7776 12.2974 17.4389C11.9718 16.6527 11.3472 16.0281 10.5611 15.7025C10.2223 15.5622 9.87284 15.5078 9.50289 15.4825ZM6.44188 17.3193C6.53189 17.282 6.66864 17.2476 6.94949 17.2285C7.2382 17.2088 7.61106 17.2083 8.16663 17.2083C8.7222 17.2083 9.09505 17.2088 9.38376 17.2285C9.66461 17.2476 9.80136 17.282 9.89137 17.3193C10.2487 17.4673 10.5326 17.7512 10.6806 18.1085C10.7179 18.1986 10.7523 18.3353 10.7715 18.6162C10.7912 18.9049 10.7916 19.2777 10.7916 19.8333C10.7916 20.3889 10.7912 20.7617 10.7715 21.0504C10.7523 21.3313 10.7179 21.468 10.6806 21.558C10.5326 21.9154 10.2487 22.1993 9.89137 22.3473C9.80136 22.3846 9.66461 22.419 9.38376 22.4381C9.09505 22.4578 8.7222 22.4583 8.16663 22.4583C7.61106 22.4583 7.2382 22.4578 6.94949 22.4381C6.66864 22.419 6.53189 22.3846 6.44188 22.3473C6.08455 22.1993 5.80065 21.9154 5.65264 21.558C5.61535 21.468 5.58096 21.3313 5.5618 21.0504C5.5421 20.7617 5.54163 20.3889 5.54163 19.8333C5.54163 19.2777 5.5421 18.9049 5.5618 18.6162C5.58096 18.3353 5.61535 18.1986 5.65264 18.1085C5.80065 17.7512 6.08455 17.4673 6.44188 17.3193Z" fill="white"/>
    <path fill-rule="evenodd" clip-rule="evenodd" d="M21.1696 15.4825C20.8142 15.4583 20.3813 15.4583 19.8628 15.4583H19.8038C19.2853 15.4583 18.8524 15.4583 18.497 15.4825C18.1271 15.5078 17.7776 15.5622 17.4389 15.7025C16.6527 16.0281 16.0281 16.6527 15.7025 17.4389C15.5622 17.7776 15.5078 18.1271 15.4825 18.497C15.4583 18.8524 15.4583 19.2853 15.4583 19.8038V19.8628C15.4583 20.3813 15.4583 20.8142 15.4825 21.1696C15.5078 21.5395 15.5622 21.8889 15.7025 22.2277C16.0281 23.0139 16.6527 23.6384 17.4389 23.9641C17.7776 24.1044 18.1271 24.1588 18.497 24.1841C18.8524 24.2083 19.2853 24.2083 19.8038 24.2083H19.8628C20.3813 24.2083 20.8142 24.2083 21.1696 24.1841C21.5395 24.1588 21.8889 24.1044 22.2277 23.9641C23.0139 23.6384 23.6384 23.0139 23.9641 22.2277C24.1044 21.8889 24.1588 21.5395 24.1841 21.1696C24.2083 20.8142 24.2083 20.3813 24.2083 19.8628V19.8038C24.2083 19.2853 24.2083 18.8524 24.1841 18.497C24.1588 18.1271 24.1044 17.7776 23.9641 17.4389C23.6384 16.6527 23.0139 16.0281 22.2277 15.7025C21.8889 15.5622 21.5395 15.5078 21.1696 15.4825ZM18.1085 17.3193C18.1986 17.282 18.3353 17.2476 18.6162 17.2285C18.9049 17.2088 19.2777 17.2083 19.8333 17.2083C20.3889 17.2083 20.7617 17.2088 21.0504 17.2285C21.3313 17.2476 21.468 17.282 21.558 17.3193C21.9154 17.4673 22.1993 17.7512 22.3473 18.1085C22.3846 18.1986 22.419 18.3353 22.4381 18.6162C22.4578 18.9049 22.4583 19.2777 22.4583 19.8333C22.4583 20.3889 22.4578 20.7617 22.4381 21.0504C22.419 21.3313 22.3846 21.468 22.3473 21.558C22.1993 21.9154 21.9154 22.1993 21.558 22.3473C21.468 22.3846 21.3313 22.419 21.0504 22.4381C20.7617 22.4578 20.3889 22.4583 19.8333 22.4583C19.2777 22.4583 18.9049 22.4578 18.6162 22.4381C18.3353 22.419 18.1986 22.3846 18.1085 22.3473C17.7512 22.1993 17.4673 21.9154 17.3193 21.558C17.282 21.468 17.2476 21.3313 17.2285 21.0504C17.2088 20.7617 17.2083 20.3889 17.2083 19.8333C17.2083 19.2777 17.2088 18.9049 17.2285 18.6162C17.2476 18.3353 17.282 18.1986 17.3193 18.1085C17.4673 17.7512 17.7512 17.4673 18.1085 17.3193Z" fill="white"/>
</svg>
