<svg width="22" height="23" viewBox="0 0 22 23" fill="none" xmlns="http://www.w3.org/2000/svg">
<g id="Download">
<path id="Vector" fill-rule="evenodd" clip-rule="evenodd" d="M11.875 1.5C11.875 1.01675 11.4832 0.625 11 0.625C10.5168 0.625 10.125 1.01675 10.125 1.5V8.5H7.5C6.41616 8.5 5.87424 8.5 5.4208 8.57182C2.92476 8.96715 0.967152 10.9248 0.571818 13.4208C0.5 13.8742 0.5 14.4162 0.5 15.5C0.5 16.5838 0.5 17.1258 0.571818 17.5792C0.967152 20.0752 2.92476 22.0328 5.4208 22.4282C5.87424 22.5 6.41616 22.5 7.5 22.5H14.5C15.5838 22.5 16.1258 22.5 16.5792 22.4282C19.0752 22.0328 21.0328 20.0752 21.4282 17.5792C21.5 17.1258 21.5 16.5838 21.5 15.5C21.5 14.4162 21.5 13.8742 21.4282 13.4208C21.0328 10.9248 19.0752 8.96715 16.5792 8.57182C16.1258 8.5 15.5838 8.5 14.5 8.5H11.875V1.5ZM11.875 8.5H10.125V16.4456C9.74857 16.0635 9.30104 15.5012 8.64979 14.6798L7.01896 12.623C6.71872 12.2444 6.16836 12.1808 5.7897 12.481C5.41104 12.7813 5.34746 13.3316 5.6477 13.7103L7.31167 15.8089C7.93371 16.5935 8.44701 17.2409 8.90643 17.7021C9.3779 18.1753 9.90118 18.5677 10.5699 18.6742C10.7123 18.6969 10.856 18.7083 11 18.7083C11.144 18.7083 11.2877 18.6969 11.4301 18.6742C12.0988 18.5677 12.6221 18.1753 13.0936 17.7021C13.553 17.2409 14.0663 16.5935 14.6883 15.8089L16.3523 13.7103C16.6525 13.3316 16.589 12.7813 16.2103 12.481C15.8316 12.1808 15.2813 12.2444 14.981 12.623L13.3502 14.6798C12.699 15.5012 12.2514 16.0635 11.875 16.4456V8.5Z" fill="black"/>
</g>
</svg>
