<svg width="24" height="22" viewBox="0 0 24 22" fill="none" xmlns="http://www.w3.org/2000/svg">
<g id="Heart 3">
<path id="Vector" fill-rule="evenodd" clip-rule="evenodd" d="M10.1326 1.83692C8.17996 0.598297 5.02653 -0.57296 2.30329 2.20417C-4.16121 8.79659 6.92483 21.5 12 21.5C17.0752 21.5 28.1613 8.79659 21.6967 2.20417C18.9735 -0.572929 15.8201 0.598312 13.8675 1.83692C12.7642 2.53679 11.2359 2.53678 10.1326 1.83692ZM17.5346 3.18207C17.0829 3.0104 16.5775 3.23744 16.4059 3.68918C16.2342 4.14091 16.4612 4.64627 16.913 4.81793C17.3338 4.97785 17.7731 5.24879 18.2144 5.68635C18.7765 6.24359 19.1322 6.85434 19.3305 7.49736C19.4729 7.95915 19.9627 8.21807 20.4245 8.07566C20.8862 7.93326 21.1452 7.44346 21.0028 6.98167C20.7185 6.05996 20.2099 5.20049 19.4465 4.44361C18.8443 3.8465 18.2005 3.43511 17.5346 3.18207Z" fill="#FD2E35"/>
</g>
</svg>
