<svg width="28" height="28" viewBox="0 0 28 28" fill="none" xmlns="http://www.w3.org/2000/svg">
    <path d="M7.34261 5.79319C4.23133 8.05367 2.67568 9.18391 2.06469 10.8534C2.01568 10.9874 1.97159 11.123 1.93253 11.2602C1.44551 12.97 2.03971 14.7988 3.22811 18.4563C4.41652 22.1138 5.01072 23.9426 6.40973 25.0396C6.52195 25.1276 6.63737 25.2115 6.75574 25.291C7.2535 25.6255 7.80215 25.8471 8.45833 25.994V20.7896C8.45833 17.7291 10.9394 15.248 14 15.248C17.0606 15.248 19.5417 17.7291 19.5417 20.7896V25.994C20.1979 25.8471 20.7465 25.6255 21.2443 25.291C21.3626 25.2115 21.4781 25.1276 21.5903 25.0396C22.9893 23.9426 23.5835 22.1138 24.7719 18.4563C25.9603 14.7988 26.5545 12.97 26.0675 11.2602C26.0284 11.123 25.9843 10.9874 25.9353 10.8534C25.3243 9.18392 23.7687 8.05368 20.6574 5.7932C17.5461 3.53272 15.9905 2.40247 14.2139 2.3373C14.0713 2.33207 13.9287 2.33207 13.7862 2.3373C12.0095 2.40247 10.4539 3.53271 7.34261 5.79319Z" fill="black"/>
    <path fill-rule="evenodd" clip-rule="evenodd" d="M17.7917 26.2188V20.7896C17.7917 18.6956 16.0941 16.998 14 16.998C11.9059 16.998 10.2083 18.6956 10.2083 20.7896V26.2188C11.2268 26.2825 12.459 26.2825 14 26.2825C15.541 26.2825 16.7732 26.2825 17.7917 26.2188ZM14.875 20.7896C14.875 20.3064 14.4832 19.9146 14 19.9146C13.5167 19.9146 13.125 20.3064 13.125 20.7896V23.123C13.125 23.6062 13.5167 23.998 14 23.998C14.4832 23.998 14.875 23.6062 14.875 23.123V20.7896Z" fill="black"/>
</svg>
