<svg width="90" height="90" viewBox="0 0 90 90" fill="none" xmlns="http://www.w3.org/2000/svg">
<g id="Image 3">
<g id="Vector" filter="url(#filter0_b_41_498)">
<path fill-rule="evenodd" clip-rule="evenodd" d="M23.402 1.89053C28.1609 1.37494 34.1592 1.37497 41.8115 1.375H42.1885C49.8408 1.37497 55.8391 1.37494 60.598 1.89053C65.4544 2.41669 69.3893 3.50968 72.749 5.95064C74.783 7.42837 76.5716 9.21704 78.0494 11.251C80.4903 14.6107 81.5833 18.5456 82.1095 23.402C82.6251 28.1608 82.625 34.1593 82.625 41.8114V42.0249C82.625 45.9179 82.625 49.3676 82.5618 52.4188C82.3761 61.3942 81.6739 67.7603 78.0494 72.749C76.5716 74.783 74.783 76.5716 72.749 78.0494C69.3893 80.4903 65.4544 81.5833 60.598 82.1095C55.8392 82.6251 49.841 82.625 42.1889 82.625H41.8114C34.1593 82.625 28.1608 82.6251 23.402 82.1095C18.5456 81.5833 14.6107 80.4903 11.251 78.0494C9.29086 76.6253 7.55852 74.9124 6.11275 72.9695C6.05829 72.8963 6.00425 72.8228 5.95064 72.749C3.50968 69.3893 2.41669 65.4544 1.89053 60.598C1.37494 55.8391 1.37497 49.8408 1.375 42.1885V41.8115C1.37497 34.1593 1.37494 28.1609 1.89054 23.402C2.41669 18.5456 3.50969 14.6107 5.95064 11.251C7.42838 9.21705 9.21705 7.42838 11.251 5.95064C14.6107 3.50968 18.5456 2.41669 23.402 1.89053Z" fill="#F07721"/>
<path d="M5.54613 73.0429L5.95064 72.749L5.54613 73.0429C5.60087 73.1183 5.65603 73.1933 5.71161 73.268L6.11275 72.9695L5.71162 73.268C7.18757 75.2514 8.95605 77 10.9571 78.4539C14.4162 80.9671 18.4492 82.0758 23.3481 82.6066C28.1338 83.1251 34.1544 83.125 41.7819 83.125H41.8114H42.1889H42.2185C49.8459 83.125 55.8662 83.1251 60.6519 82.6066C65.5508 82.0758 69.5838 80.9671 73.0429 78.4539C75.1193 76.9453 76.9453 75.1193 78.4539 73.0429C82.1809 67.913 82.8761 61.3956 83.0617 52.4292C83.125 49.3724 83.125 45.9181 83.125 42.0277V42.0249V41.8114V41.7819C83.125 34.1544 83.1251 28.1338 82.6066 23.3481C82.0758 18.4492 80.9671 14.4162 78.4539 10.9571C76.9453 8.8807 75.1193 7.0547 73.0429 5.54613C69.5838 3.03293 65.5508 1.92421 60.6519 1.39344C55.8661 0.874938 49.8458 0.874966 42.2182 0.875L42.1885 0.875001H41.8115L41.7818 0.875C34.1542 0.874966 28.1339 0.874938 23.3481 1.39344C18.4492 1.92421 14.4162 3.03293 10.9571 5.54613C8.88071 7.05471 7.05471 8.88071 5.54613 10.9571C3.03293 14.4162 1.92421 18.4492 1.39344 23.3481C0.87494 28.1339 0.874967 34.1543 0.875 41.7819L0.875001 41.8115V42.1885L0.875 42.2182C0.874966 49.8458 0.874938 55.8661 1.39344 60.6519C1.92421 65.5508 3.03293 69.5838 5.54613 73.0429Z" stroke="url(#paint0_linear_41_498)" stroke-linecap="round"/>
</g>
<g id="Image 2" filter="url(#filter1_d_41_498)">
<g id="Vector_2" filter="url(#filter2_b_41_498)">
<path fill-rule="evenodd" clip-rule="evenodd" d="M76.3555 49.2986L76.0928 49.0451C74.9431 47.9405 74.0934 47.193 73.2942 46.6256C64.341 40.2687 51.9908 41.9521 45.0656 50.4734C44.2293 51.5025 43.3921 52.8739 42.0758 55.1758L39.9167 54.5C34.9353 53.5037 32.4447 53.0056 30.1587 53.0541C24.041 53.1841 18.2898 55.9969 14.4314 60.7461C13.1452 62.3293 12.1023 64.3082 10.2792 67.9429C10.5041 68.3408 10.7463 68.7166 11.007 69.0754L11.1268 69.2383C12.1954 70.6744 13.4759 71.9404 14.9246 72.993C17.0413 74.5309 19.7506 75.4273 24.0752 75.8958C28.4583 76.3707 34.1184 76.375 42 76.375C49.8815 76.375 55.5417 76.3707 59.9248 75.8958C64.2494 75.4273 66.9587 74.5309 69.0754 72.993C70.5787 71.9008 71.9008 70.5787 72.993 69.0754C75.3333 65.8542 76.1249 61.3859 76.3132 52.2895C76.3329 51.3357 76.3463 50.3401 76.3555 49.2986ZM37.8333 37.8333C33.231 37.8333 29.5 34.1024 29.5 29.5C29.5 24.8976 33.231 21.1667 37.8333 21.1667C42.4357 21.1667 46.1667 24.8976 46.1667 29.5C46.1667 34.1024 42.4357 37.8333 37.8333 37.8333Z" fill="url(#paint1_linear_41_498)"/>
</g>
</g>
</g>
<defs>
<filter id="filter0_b_41_498" x="-23.625" y="-23.625" width="131.25" height="131.25" filterUnits="userSpaceOnUse" color-interpolation-filters="sRGB">
<feFlood flood-opacity="0" result="BackgroundImageFix"/>
<feGaussianBlur in="BackgroundImageFix" stdDeviation="12"/>
<feComposite in2="SourceAlpha" operator="in" result="effect1_backgroundBlur_41_498"/>
<feBlend mode="normal" in="SourceGraphic" in2="effect1_backgroundBlur_41_498" result="shape"/>
</filter>
<filter id="filter1_d_41_498" x="7.27923" y="18.1667" width="82.0763" height="71.2083" filterUnits="userSpaceOnUse" color-interpolation-filters="sRGB">
<feFlood flood-opacity="0" result="BackgroundImageFix"/>
<feColorMatrix in="SourceAlpha" type="matrix" values="0 0 0 0 0 0 0 0 0 0 0 0 0 0 0 0 0 0 127 0" result="hardAlpha"/>
<feOffset dx="5" dy="5"/>
<feGaussianBlur stdDeviation="4"/>
<feColorMatrix type="matrix" values="0 0 0 0 0.3375 0 0 0 0 0.140217 0 0 0 0 0 0 0 0 0.5 0"/>
<feBlend mode="normal" in2="BackgroundImageFix" result="effect1_dropShadow_41_498"/>
<feBlend mode="normal" in="SourceGraphic" in2="effect1_dropShadow_41_498" result="shape"/>
</filter>
<filter id="filter2_b_41_498" x="-13.7208" y="-2.83333" width="114.076" height="103.208" filterUnits="userSpaceOnUse" color-interpolation-filters="sRGB">
<feFlood flood-opacity="0" result="BackgroundImageFix"/>
<feGaussianBlur in="BackgroundImageFix" stdDeviation="12"/>
<feComposite in2="SourceAlpha" operator="in" result="effect1_backgroundBlur_41_498"/>
<feBlend mode="normal" in="SourceGraphic" in2="effect1_backgroundBlur_41_498" result="shape"/>
</filter>
<linearGradient id="paint0_linear_41_498" x1="1.375" y1="1.375" x2="82.6662" y2="82.5838" gradientUnits="userSpaceOnUse">
<stop stop-color="white" stop-opacity="0.25"/>
<stop offset="1" stop-color="white" stop-opacity="0"/>
</linearGradient>
<linearGradient id="paint1_linear_41_498" x1="43.8738" y1="88.1368" x2="119.123" y2="-0.146582" gradientUnits="userSpaceOnUse">
<stop stop-color="white"/>
<stop offset="1" stop-color="white" stop-opacity="0.2"/>
</linearGradient>
</defs>
</svg>
