<svg width="22" height="22" viewBox="0 0 22 22" fill="none" xmlns="http://www.w3.org/2000/svg">
<g id="Play Circle">
<path id="Vector" d="M8.35181 7.80507L8.8476 8.14299L8.35181 7.80507ZM12.4211 8.27903L12.7355 7.76805L12.4211 8.27903ZM9.64955 7.0064L9.58275 6.41013L9.64955 7.0064ZM9.64955 14.9934L9.58275 15.5896L9.64955 14.9934ZM8.35181 14.1947L7.85602 14.5326L8.35181 14.1947ZM14.8407 11.7985L14.2871 11.5673L14.8407 11.7985ZM14.8407 10.2012L14.2871 10.4325L14.8407 10.2012ZM20.4 10.9999C20.4 16.1914 16.1915 20.3999 11 20.3999V21.5999C16.8542 21.5999 21.6 16.8541 21.6 10.9999H20.4ZM11 20.3999C5.80852 20.3999 1.6 16.1914 1.6 10.9999H0.4C0.4 16.8541 5.14578 21.5999 11 21.5999V20.3999ZM1.6 10.9999C1.6 5.8084 5.80852 1.59988 11 1.59988V0.399878C5.14578 0.399878 0.4 5.14566 0.4 10.9999H1.6ZM11 1.59988C16.1915 1.59988 20.4 5.8084 20.4 10.9999H21.6C21.6 5.14566 16.8542 0.399878 11 0.399878V1.59988ZM8.6 10.9999C8.6 10.0959 8.60053 9.45693 8.64177 8.97782C8.68341 8.49398 8.76116 8.26982 8.8476 8.14299L7.85602 7.46714C7.59065 7.85648 7.4925 8.33683 7.44619 8.87492C7.39947 9.41773 7.4 10.1181 7.4 10.9999H8.6ZM12.7355 7.76805C12.0206 7.32808 11.448 6.97488 10.9792 6.74442C10.5145 6.516 10.0557 6.35714 9.58275 6.41013L9.71636 7.60267C9.83868 7.58896 10.0402 7.61998 10.4498 7.82133C10.8552 8.02063 11.3706 8.3371 12.1066 8.79002L12.7355 7.76805ZM8.8476 8.14299C9.06079 7.83021 9.3793 7.64043 9.71636 7.60267L9.58275 6.41013C8.88139 6.48871 8.25657 6.87948 7.85602 7.46714L8.8476 8.14299ZM12.1066 13.2097C11.3706 13.6627 10.8552 13.9791 10.4498 14.1784C10.0402 14.3798 9.83868 14.4108 9.71636 14.3971L9.58275 15.5896C10.0557 15.6426 10.5145 15.4838 10.9792 15.2553C11.448 15.0249 12.0206 14.6717 12.7355 14.2317L12.1066 13.2097ZM7.4 10.9999C7.4 11.8817 7.39947 12.582 7.44619 13.1248C7.4925 13.6629 7.59065 14.1433 7.85602 14.5326L8.8476 13.8568C8.76116 13.7299 8.68341 13.5058 8.64177 13.0219C8.60053 12.5428 8.6 11.9039 8.6 10.9999H7.4ZM9.71636 14.3971C9.3793 14.3593 9.06079 14.1695 8.8476 13.8568L7.85602 14.5326C8.25656 15.1203 8.88138 15.511 9.58275 15.5896L9.71636 14.3971ZM12.7355 14.2317C13.4507 13.7916 14.0236 13.4397 14.4446 13.1227C14.8655 12.8057 15.2107 12.4695 15.3944 12.0298L14.2871 11.5673C14.2273 11.7105 14.0881 11.8889 13.7227 12.1641C13.3575 12.4392 12.8422 12.757 12.1066 13.2097L12.7355 14.2317ZM12.1066 8.79002C12.8422 9.24276 13.3575 9.56058 13.7227 9.83566C14.0881 10.1108 14.2273 10.2893 14.2871 10.4325L15.3944 9.96996C15.2107 9.53028 14.8655 9.1941 14.4446 8.8771C14.0236 8.56002 13.4507 8.20818 12.7355 7.76805L12.1066 8.79002ZM15.3944 12.0298C15.6685 11.3734 15.6685 10.6263 15.3944 9.96996L14.2871 10.4325C14.4376 10.7929 14.4376 11.2069 14.2871 11.5673L15.3944 12.0298Z" fill="white"/>
</g>
</svg>
