<svg width="20" height="20" viewBox="0 0 20 20" fill="none" xmlns="http://www.w3.org/2000/svg">
<g id="Download">
<path id="Vector" d="M5.21783 18.9386L5.12397 19.5312H5.12397L5.21783 18.9386ZM1.06156 14.7823L1.65417 14.6884L1.06156 14.7823ZM18.9384 14.7823L19.5311 14.8762V14.8762L18.9384 14.7823ZM14.7822 18.9386L14.876 19.5312H14.876L14.7822 18.9386ZM18.4801 8.63977C18.2811 8.37482 17.905 8.32137 17.64 8.52038C17.3751 8.7194 17.3216 9.09552 17.5206 9.36047L18.4801 8.63977ZM2.47937 9.36047C2.67839 9.09552 2.62493 8.7194 2.35998 8.52038C2.09503 8.32137 1.71891 8.37482 1.51989 8.63977L2.47937 9.36047ZM10.6 1.00012C10.6 0.668751 10.3314 0.400122 10 0.400122C9.66863 0.400122 9.4 0.668751 9.4 1.00012H10.6ZM6.47015 10.6273C6.26427 10.3677 5.88688 10.3241 5.62722 10.53C5.36757 10.7359 5.32397 11.1132 5.52985 11.3729L6.47015 10.6273ZM7.39785 12.7631L6.9277 13.1359L7.39785 12.7631ZM12.6022 12.7631L12.132 12.3903L12.6022 12.7631ZM14.4701 11.3729C14.676 11.1132 14.6324 10.7359 14.3728 10.53C14.1131 10.3241 13.7357 10.3677 13.5299 10.6273L14.4701 11.3729ZM9.74933 14.9802L9.65493 15.5728H9.65493L9.74933 14.9802ZM10.2507 14.9802L10.3451 15.5728H10.3451L10.2507 14.9802ZM18.4 12.0001V13.0001H19.6V12.0001H18.4ZM13 18.4001H7V19.6001H13V18.4001ZM1.6 13.0001V12.0001H0.4V13.0001H1.6ZM7 18.4001C6.04807 18.4001 5.64196 18.3983 5.31169 18.346L5.12397 19.5312C5.57103 19.602 6.09392 19.6001 7 19.6001V18.4001ZM0.4 13.0001C0.4 13.9062 0.398138 14.4291 0.468945 14.8762L1.65417 14.6884C1.60186 14.3582 1.6 13.9521 1.6 13.0001H0.4ZM5.31169 18.346C3.42896 18.0478 1.95237 16.5712 1.65417 14.6884L0.468945 14.8762C0.848466 17.2724 2.72777 19.1517 5.12397 19.5312L5.31169 18.346ZM18.4 13.0001C18.4 13.9521 18.3981 14.3582 18.3458 14.6884L19.5311 14.8762C19.6019 14.4291 19.6 13.9062 19.6 13.0001H18.4ZM13 19.6001C13.9061 19.6001 14.429 19.602 14.876 19.5312L14.6883 18.346C14.358 18.3983 13.9519 18.4001 13 18.4001V19.6001ZM18.3458 14.6884C18.0476 16.5712 16.571 18.0478 14.6883 18.346L14.876 19.5312C17.2722 19.1517 19.1515 17.2724 19.5311 14.8762L18.3458 14.6884ZM19.6 12.0001C19.6 10.7401 19.1832 9.57577 18.4801 8.63977L17.5206 9.36047C18.073 10.0958 18.4 11.0089 18.4 12.0001H19.6ZM1.6 12.0001C1.6 11.0089 1.92705 10.0958 2.47937 9.36047L1.51989 8.63977C0.81684 9.57577 0.4 10.7401 0.4 12.0001H1.6ZM9.4 1.00012V14.0001H10.6V1.00012H9.4ZM5.52985 11.3729L6.9277 13.1359L7.86799 12.3903L6.47015 10.6273L5.52985 11.3729ZM13.0723 13.1359L14.4701 11.3729L13.5299 10.6273L12.132 12.3903L13.0723 13.1359ZM6.9277 13.1359C7.47597 13.8273 7.91845 14.3869 8.31178 14.7817C8.70779 15.1793 9.12846 15.4889 9.65493 15.5728L9.84374 14.3877C9.69086 14.3633 9.49315 14.2673 9.16195 13.9349C8.82807 13.5997 8.43448 13.1048 7.86799 12.3903L6.9277 13.1359ZM12.132 12.3903C11.5655 13.1048 11.1719 13.5997 10.8381 13.9349C10.5068 14.2673 10.3091 14.3633 10.1563 14.3877L10.3451 15.5728C10.8715 15.4889 11.2922 15.1793 11.6882 14.7817C12.0816 14.3869 12.524 13.8273 13.0723 13.1359L12.132 12.3903ZM9.65493 15.5728C9.76926 15.591 9.88455 15.6001 10 15.6001V14.4001C9.94801 14.4001 9.89585 14.396 9.84374 14.3877L9.65493 15.5728ZM10 15.6001C10.1155 15.6001 10.2307 15.591 10.3451 15.5728L10.1563 14.3877C10.1041 14.396 10.052 14.4001 10 14.4001V15.6001ZM9.4 14.0001V15.0001H10.6V14.0001H9.4Z" fill="white"/>
</g>
</svg>
