<svg width="27" height="27" viewBox="0 0 27 27" fill="none" xmlns="http://www.w3.org/2000/svg">
    <path d="M9.89101 5.60267C10.3683 5.52707 10.694 5.07886 10.6184 4.60156C10.5428 4.12426 10.0946 3.79862 9.61725 3.87421C6.74681 4.32885 4.49556 6.58009 4.04092 9.45054C3.96533 9.92784 4.29097 10.3761 4.76827 10.4516C5.24557 10.5272 5.69378 10.2016 5.76938 9.7243C6.10541 7.60267 7.76938 5.9387 9.89101 5.60267Z" fill="white"/>
    <path fill-rule="evenodd" clip-rule="evenodd" d="M11.8334 0.291626C5.55114 0.291626 0.458374 5.38439 0.458374 11.6666C0.458374 17.9489 5.55114 23.0416 11.8334 23.0416C18.1156 23.0416 23.2084 17.9489 23.2084 11.6666C23.2084 5.38439 18.1156 0.291626 11.8334 0.291626ZM2.20837 11.6666C2.20837 6.35089 6.51763 2.04163 11.8334 2.04163C17.1491 2.04163 21.4584 6.35089 21.4584 11.6666C21.4584 16.9824 17.1491 21.2916 11.8334 21.2916C6.51763 21.2916 2.20837 16.9824 2.20837 11.6666Z" fill="white"/>
    <path d="M21.7855 20.3814C21.4438 20.0396 20.8898 20.0396 20.5481 20.3813C20.2064 20.7231 20.2064 21.2771 20.5481 21.6188L25.2146 26.2854C25.5563 26.6271 26.1103 26.6271 26.452 26.2854C26.7938 25.9437 26.7938 25.3897 26.452 25.048L21.7855 20.3814Z" fill="white"/>
</svg>
