<svg width="28" height="28" viewBox="0 0 28 28" fill="none" xmlns="http://www.w3.org/2000/svg">
    <path fill-rule="evenodd" clip-rule="evenodd" d="M14 9.62498C11.5837 9.62498 9.62498 11.5837 9.62498 14C9.62498 16.4162 11.5837 18.375 14 18.375C16.4162 18.375 18.375 16.4162 18.375 14C18.375 11.5837 16.4162 9.62498 14 9.62498ZM11.375 14C11.375 12.5502 12.5502 11.375 14 11.375C15.4497 11.375 16.625 12.5502 16.625 14C16.625 15.4497 15.4497 16.625 14 16.625C12.5502 16.625 11.375 15.4497 11.375 14Z" fill="white"/>
    <path fill-rule="evenodd" clip-rule="evenodd" d="M17.9838 3.77097C16.84 -0.236972 11.16 -0.236971 10.0161 3.77097C9.66175 5.01278 8.38595 5.74936 7.13331 5.43538C3.09043 4.42198 0.250407 9.34104 3.14948 12.3356C4.04772 13.2634 4.04772 14.7366 3.14948 15.6644C0.250406 18.6589 3.09043 23.578 7.13331 22.5646C8.38595 22.2506 9.66175 22.9872 10.0161 24.229C11.16 28.2369 16.84 28.2369 17.9838 24.229C18.3382 22.9872 19.614 22.2506 20.8666 22.5646C24.9095 23.578 27.7495 18.6589 24.8505 15.6644C23.9522 14.7366 23.9522 13.2634 24.8505 12.3356C27.7495 9.34104 24.9095 4.42198 20.8666 5.43538C19.614 5.74936 18.3382 5.01278 17.9838 3.77097ZM11.699 4.25123C12.3596 1.93628 15.6403 1.93628 16.301 4.25123C16.9146 6.4012 19.1234 7.67648 21.2921 7.13286C23.6273 6.54753 25.2676 9.38873 23.5932 11.1183C22.038 12.7247 22.038 15.2753 23.5932 16.8816C25.2676 18.6112 23.6273 21.4524 21.2921 20.8671C19.1234 20.3235 16.9146 21.5988 16.301 23.7487C15.6403 26.0637 12.3596 26.0637 11.699 23.7487C11.0854 21.5988 8.87654 20.3235 6.70782 20.8671C4.37269 21.4524 2.73232 18.6112 4.4068 16.8816C5.96194 15.2753 5.96195 12.7247 4.4068 11.1183C2.73232 9.38873 4.37269 6.54753 6.70782 7.13286C8.87654 7.67648 11.0854 6.4012 11.699 4.25123Z" fill="white"/>
</svg>
