<svg width="24" height="24" viewBox="0 0 24 24" fill="none" xmlns="http://www.w3.org/2000/svg">
<g id="Logout">
<path id="Vector" d="M22.5 14.3333L21.75 14.3333L22.5 14.3333ZM22.5 15.5L23.25 15.5L22.5 15.5ZM15.5 22.5L15.5 21.75L15.5 22.5ZM8.5 22.5L8.5 23.25L8.5 22.5ZM1.5 15.5L0.75 15.5L1.5 15.5ZM1.5 14.3333L2.25 14.3333L1.5 14.3333ZM6.4208 22.4282L6.30347 23.1689L6.30347 23.1689L6.4208 22.4282ZM1.57182 17.5792L2.31258 17.4619L1.57182 17.5792ZM22.4282 17.5792L23.1689 17.6965L23.1689 17.6965L22.4282 17.5792ZM17.5792 22.4282L17.6965 23.1689L17.6965 23.1689L17.5792 22.4282ZM21.9334 10.3829C21.6847 10.0517 21.2145 9.98489 20.8833 10.2337C20.5521 10.4824 20.4853 10.9526 20.7341 11.2838L21.9334 10.3829ZM3.26591 11.2838C3.51468 10.9526 3.44786 10.4824 3.11667 10.2337C2.78548 9.98489 2.31533 10.0517 2.06656 10.3829L3.26591 11.2838ZM11.25 17.8333C11.25 18.2475 11.5858 18.5833 12 18.5833C12.4142 18.5833 12.75 18.2475 12.75 17.8333L11.25 17.8333ZM12 2.66667L12.75 2.66667L12 2.66667ZM6.74565 5.7007C6.4883 6.02526 6.54279 6.497 6.86736 6.75435C7.19193 7.0117 7.66367 6.95721 7.92102 6.63264L6.74565 5.7007ZM8.96415 4.10987L8.37647 3.6439L8.96415 4.10987ZM15.0358 4.10987L15.6235 3.6439L15.0358 4.10987ZM16.079 6.63264C16.3363 6.95721 16.8081 7.0117 17.1326 6.75435C17.4572 6.497 17.5117 6.02527 17.2543 5.7007L16.079 6.63264ZM11.7076 1.5232L11.5895 0.782547L11.5895 0.782547L11.7076 1.5232ZM12.2924 1.5232L12.4104 0.782547L12.4104 0.782547L12.2924 1.5232ZM21.75 14.3333L21.75 15.5L23.25 15.5L23.25 14.3333L21.75 14.3333ZM15.5 21.75L8.5 21.75L8.5 23.25L15.5 23.25L15.5 21.75ZM2.25 15.5L2.25 14.3333L0.75 14.3333L0.75 15.5L2.25 15.5ZM8.5 21.75C7.3875 21.75 6.91857 21.7477 6.53812 21.6874L6.30347 23.1689C6.82991 23.2523 7.44482 23.25 8.5 23.25L8.5 21.75ZM0.75 15.5C0.75 16.5552 0.747672 17.1701 0.831051 17.6965L2.31258 17.4619C2.25233 17.0814 2.25 16.6125 2.25 15.5L0.75 15.5ZM6.53812 21.6874C4.363 21.3429 2.65709 19.637 2.31258 17.4619L0.831051 17.6965C1.27721 20.5135 3.48651 22.7228 6.30347 23.1689L6.53812 21.6874ZM21.75 15.5C21.75 16.6125 21.7477 17.0814 21.6874 17.4619L23.1689 17.6965C23.2523 17.1701 23.25 16.5552 23.25 15.5L21.75 15.5ZM15.5 23.25C16.5552 23.25 17.1701 23.2523 17.6965 23.1689L17.4619 21.6874C17.0814 21.7477 16.6125 21.75 15.5 21.75L15.5 23.25ZM21.6874 17.4619C21.3429 19.637 19.637 21.3429 17.4619 21.6874L17.6965 23.1689C20.5135 22.7228 22.7228 20.5135 23.1689 17.6965L21.6874 17.4619ZM23.25 14.3333C23.25 12.8521 22.7599 11.4833 21.9334 10.3829L20.7341 11.2838C21.3722 12.1333 21.75 13.1881 21.75 14.3333L23.25 14.3333ZM2.25 14.3333C2.25 13.1881 2.62782 12.1333 3.26591 11.2838L2.06656 10.3829C1.24005 11.4833 0.75 12.8521 0.75 14.3333L2.25 14.3333ZM12.75 17.8333L12.75 2.66667L11.25 2.66667L11.25 17.8333L12.75 17.8333ZM7.92102 6.63264L9.55184 4.57584L8.37647 3.6439L6.74565 5.7007L7.92102 6.63264ZM14.4482 4.57584L16.079 6.63264L17.2543 5.7007L15.6235 3.6439L14.4482 4.57584ZM9.55184 4.57584C10.2135 3.74136 10.6706 3.16665 11.0577 2.7781C11.4414 2.39291 11.6628 2.2898 11.8256 2.26386L11.5895 0.782547C10.9598 0.882888 10.4597 1.25298 9.99499 1.71949C9.53362 2.18264 9.01536 2.83813 8.37647 3.6439L9.55184 4.57584ZM15.6235 3.6439C14.9846 2.83813 14.4664 2.18264 14.005 1.71949C13.5403 1.25298 13.0402 0.882888 12.4104 0.782547L12.1744 2.26386C12.3372 2.2898 12.5586 2.39291 12.9423 2.7781C13.3294 3.16665 13.7865 3.74136 14.4482 4.57584L15.6235 3.6439ZM11.8256 2.26386C11.8838 2.25459 11.942 2.25 12 2.25L12 0.75C11.8627 0.75 11.7255 0.760881 11.5895 0.782547L11.8256 2.26386ZM12 2.25C12.058 2.25 12.1162 2.25459 12.1744 2.26386L12.4104 0.782547C12.2745 0.760881 12.1373 0.75 12 0.75L12 2.25ZM12.75 2.66667L12.75 1.5L11.25 1.5L11.25 2.66667L12.75 2.66667Z" fill="white"/>
</g>
</svg>
