<svg width="228" height="165" viewBox="0 0 228 165" fill="none" xmlns="http://www.w3.org/2000/svg">
    <path d="M29.3518 119.884C31.1993 123.875 36.3723 127.348 41.1759 127.348C42.8017 127.348 44.3536 126.979 45.7578 126.092V141.759C29.3518 141.685 25.6567 133.482 21.5183 119.589L17.1581 118.111C18.7839 123.579 19.4491 134.147 18.8578 141.242H5.26009C6.4425 120.475 6.4425 108.799 5.26009 88.1069H18.8578C18.7839 89.4371 17.7493 95.7187 17.6754 96.975H18.7839C19.2273 90.6934 25.2872 87.4418 31.3471 87.4418C41.102 87.4418 46.7924 95.1275 46.7924 103.257C46.7924 113.085 39.1806 120.549 29.3518 119.293V119.884ZM19.0056 106.804C19.0056 110.499 21.1488 113.455 26.3957 113.455C30.7559 113.455 33.9336 109.76 33.9336 105.695C33.9336 102.296 31.421 99.2659 26.6913 99.2659C22.0356 99.2659 19.0056 101.852 19.0056 106.804ZM78.3619 130.304C81.0223 130.304 82.5742 130.083 84.7912 129.565V141.242H50.8708C51.9793 120.475 51.9793 108.799 50.8708 88.1069H84.7912V99.4137C82.5742 98.8964 81.0223 98.6747 78.3619 98.6747H64.0251L63.9512 108.651C64.2468 111.903 66.316 113.381 69.0504 113.381C72.3759 113.381 76.7361 111.164 80.1355 107.247L83.8305 118.406C80.4311 120.623 75.9231 121.88 71.4891 121.88C68.9026 121.88 66.316 121.436 63.9512 120.475C63.9512 121.88 63.9512 128.9 64.0251 130.304H78.3619ZM116.539 130.304C119.2 130.304 120.752 130.083 122.969 129.565V141.242H89.048C90.1566 120.475 90.1566 108.799 89.048 88.1069H122.969V99.4137C120.752 98.8964 119.2 98.6747 116.539 98.6747H102.202L102.128 108.651C102.424 111.903 104.493 113.381 107.228 113.381C110.553 113.381 114.913 111.164 118.313 107.247L122.008 118.406C118.608 120.623 114.1 121.88 109.666 121.88C107.08 121.88 104.493 121.436 102.128 120.475C102.128 121.88 102.128 128.9 102.202 130.304H116.539ZM154.716 130.526C157.377 130.526 159.003 130.304 161.22 129.787V141.242H127.225C128.334 120.475 128.334 108.799 127.225 88.1069H141.193C140.38 103.183 140.158 117.963 140.527 130.526H154.716ZM207.616 126.831C207.616 137.473 200.299 141.981 189.732 141.981C181.676 141.981 177.538 138.803 176.799 131.856H175.69L175.617 141.242H164.162V119.958H175.617C177.612 127.2 180.642 129.639 187.515 129.639C190.249 129.639 192.318 128.235 192.318 124.983C192.318 116.485 164.531 120.328 164.531 102.148C164.531 92.7626 172.587 87.3679 181.529 87.3679C189.51 87.3679 193.057 90.8412 193.87 97.8618H194.979L195.052 88.1069H206.433V109.39H195.052C193.427 103.626 189.879 99.192 185.667 99.192C182.046 99.192 178.794 100.374 178.794 103.774C178.794 113.307 207.616 109.982 207.616 126.831Z" fill="#F07721"/>
    <mask id="mask0_979_1162" style="mask-type:alpha" maskUnits="userSpaceOnUse" x="3" y="10" width="223" height="71">
        <path d="M18.3944 59.1016C18.966 64.9135 19.6703 71.5309 20.5704 78.8009L7.00863 79.7889C6.60541 58.9971 5.75704 47.3516 3.14802 26.7946L36.2418 24.3838L37.0955 36.103C34.8468 35.7481 33.2092 35.6451 30.5558 35.8384L16.8465 36.8371L17.4655 46.3505C17.9966 49.5721 20.0257 50.9803 22.6791 50.787C25.9221 50.5507 29.9622 48.0335 32.9944 43.8855L37.4812 55.6364C34.2464 58.0208 30.0682 59.659 25.7933 59.9704C23.2873 60.1529 20.7491 59.8933 18.3944 59.1016ZM80.6631 54.4171C82.7562 75.0117 74.796 75.5916 63.2242 76.4346C52.2421 77.2346 44.0661 77.9043 43.2207 57.1448C42.9869 51.9009 41.8046 38.7238 39.8516 24.1208L54.1505 23.0791C54.4444 37.2843 55.2879 52.9313 55.838 58.4485C56.5116 65.6609 61.3401 65.8278 62.7405 65.7258C64.0672 65.6292 68.673 64.775 68.305 57.6885C68.0389 52.0024 66.6058 36.3983 64.8378 22.3006L79.1367 21.2589C79.3944 35.9854 80.1344 49.1947 80.6631 54.4171ZM91.393 31.0359C97.8913 42.9367 100.44 61.6457 101.851 72.8797L87.4784 73.9267C87.1488 53.1296 86.3005 41.4841 83.6177 20.9324L99.1696 19.7995L119.648 61.8765L120.827 61.7906C115.864 48.5925 112.552 29.5686 111.184 18.9243L126.957 17.7752C127.354 38.4933 128.203 50.1388 130.817 70.7695L113.349 72.042L93.383 30.891L91.393 31.0359ZM139.402 27.5385C145.901 39.4392 148.449 58.1482 149.86 69.3822L135.488 70.4292C135.158 49.6321 134.31 37.9866 131.627 17.435L147.179 16.302L167.657 58.3791L168.836 58.2932C163.874 45.095 160.561 26.0712 159.193 15.4268L174.966 14.2778C175.364 34.9958 176.212 46.6413 178.827 67.272L161.358 68.5446L141.392 27.3935L139.402 27.5385ZM208.052 46.3224C208.686 51.9816 209.342 57.9357 210.226 64.9846L196.812 65.9618C196.728 58.7064 196.43 52.5782 196.158 46.8184C191.656 38.9217 185.153 23.9092 177.989 14.0575L193.688 12.9138L200.999 36.9814L202.104 36.9008L206.292 11.9957L221.917 10.8574C216.383 21.3377 211.42 37.6301 208.052 46.3224Z" fill="white"/>
    </mask>
    <g mask="url(#mask0_979_1162)">
        <path d="M-28.1887 -21.1805L245.904 -41.1481L251.609 16.3794L145.643 47.3126C125.023 53.3317 103.665 56.4447 82.1857 56.5617L-22.4837 57.1316L-28.1887 -21.1805Z" fill="#F07721"/>
    </g>
    <mask id="mask1_979_1162" style="mask-type:alpha" maskUnits="userSpaceOnUse" x="5" y="25" width="220" height="55">
        <path d="M18.1188 59.0824C18.2666 64.9206 18.4883 71.5716 18.8578 78.8878H5.26009C6.3686 58.1217 6.3686 46.4454 5.26009 25.7531H38.4416V37.5034C36.2245 36.986 34.5987 36.7643 31.9383 36.7643H18.1927L18.1188 46.2975C18.4144 49.5492 20.3359 51.1011 22.9963 51.1011C26.2479 51.1011 30.4603 48.8841 33.7858 44.9673L37.407 57.0132C34.0075 59.1563 29.7213 60.4865 25.435 60.4865C22.9224 60.4865 20.4098 60.0431 18.1188 59.0824ZM80.5633 58.9346C81.1545 79.6268 73.1732 79.6268 61.5708 79.6268C50.5596 79.6268 42.3566 79.7007 43.0217 58.9346C43.1695 53.6876 42.9478 40.4594 42.061 25.7531H56.3977C55.6587 39.9421 55.3631 55.6091 55.5109 61.1516C55.6587 68.3939 60.4623 68.9112 61.8664 68.9112C63.1966 68.9112 67.8524 68.3939 68.0002 61.2994C68.148 55.6091 67.8524 39.9421 67.1134 25.7531H81.4501C80.6372 40.4594 80.4155 53.6876 80.5633 58.9346ZM92.9636 36.3948C98.5801 48.7363 99.7625 67.581 100.354 78.8878H85.9431C87.1255 58.1217 87.1255 46.4454 85.9431 25.7531H101.536L118.903 69.2068H120.085C116.095 55.683 114.173 36.4687 113.582 25.7531H129.397C128.288 46.4454 128.288 58.1217 129.397 78.8878H111.882L94.959 36.3948H92.9636ZM141.1 36.3948C146.717 48.7363 147.899 67.581 148.49 78.8878H134.08C135.262 58.1217 135.262 46.4454 134.08 25.7531H149.673L167.039 69.2068H168.222C164.231 55.683 162.31 36.4687 161.719 25.7531H177.533C176.425 46.4454 176.425 58.1217 177.533 78.8878H160.019L143.096 36.3948H141.1ZM208.203 60.117C208.425 65.8074 208.647 71.7933 209.016 78.8878H195.566C196.01 71.6455 196.157 65.5118 196.305 59.7475C192.389 51.5445 186.994 36.0992 180.564 25.7531H196.305L201.848 50.2882H202.956L208.942 25.7531H224.609C218.328 35.8036 212.194 51.6923 208.203 60.117Z" fill="white"/>
    </mask>
    <g mask="url(#mask1_979_1162)">
        <path d="M-22.5081 54.1476L56.4381 60.7818C95.171 64.0366 134.175 61.1597 172.011 52.2571L252.311 33.363V132.667H-22.5081V54.1476Z" fill="#F07721"/>
    </g>
</svg>
